<?xml version="1.0" encoding="UTF-8"?><svg xmlns="http://www.w3.org/2000/svg" xmlns:xlink="http://www.w3.org/1999/xlink" viewBox="0 0 920.96 1994.18"><defs><style>.cls-1{opacity:.04;}.cls-1,.cls-2,.cls-3{fill:#ffeaa3;}.cls-2{opacity:.03;}.cls-3{opacity:.08;}.cls-4{fill:#ffffa6;}.cls-4,.cls-5{opacity:.1;}.cls-6{fill:url(#linear-gradient);}.cls-5{fill:url(#linear-gradient-8);}.cls-7{fill:#ffdab5;}.cls-8{fill:#ffecd3;}.cls-9{fill:#ffd78f;}.cls-10{fill:#ffbb78;}.cls-11{fill:url(#radial-gradient-2);}.cls-11,.cls-12{opacity:.3;}.cls-13{fill:url(#radial-gradient-3);}.cls-13,.cls-14{opacity:.5;}.cls-15,.cls-16,.cls-17,.cls-18{opacity:.2;}.cls-15,.cls-19{fill:#ffff74;}.cls-16{fill:#fff;}.cls-20{fill:url(#linear-gradient-7);opacity:.15;}.cls-14{fill:url(#linear-gradient-10);}.cls-21{fill:url(#radial-gradient);}.cls-21,.cls-22{opacity:.4;}.cls-23{fill:url(#linear-gradient-11);}.cls-24{isolation:isolate;}.cls-17{fill:url(#linear-gradient-3);}.cls-18{fill:url(#linear-gradient-2);}.cls-22{fill:url(#linear-gradient-9);}.cls-25{fill:url(#linear-gradient-5);}.cls-25,.cls-26{opacity:.6;}.cls-26{fill:url(#linear-gradient-6);}.cls-27{fill:url(#linear-gradient-4);opacity:.8;}.cls-12{fill:#a15555;}.cls-19{mix-blend-mode:lighten;opacity:.05;}</style><linearGradient id="linear-gradient" x1="460.48" y1="-193.53" x2="460.48" y2="2156.14" gradientUnits="userSpaceOnUse"><stop offset="0" stop-color="#df254e"/><stop offset=".11" stop-color="#e0274d"/><stop offset=".22" stop-color="#e33446"/><stop offset=".42" stop-color="#ed5636"/><stop offset=".69" stop-color="#fe8e1d"/><stop offset=".7" stop-color="#ff911c"/><stop offset=".77" stop-color="#fe921f"/><stop offset=".82" stop-color="#fd9829"/><stop offset=".87" stop-color="#fba139"/><stop offset=".91" stop-color="#f8af51"/><stop offset=".95" stop-color="#f4c070"/><stop offset=".99" stop-color="#efd595"/><stop offset="1" stop-color="#efda9d"/></linearGradient><linearGradient id="linear-gradient-2" x1="821.55" y1="735.53" x2="694.16" y2="1112.08" gradientUnits="userSpaceOnUse"><stop offset=".06" stop-color="#ffa6b2" stop-opacity=".5"/><stop offset=".47" stop-color="#ffbfcf" stop-opacity=".8"/><stop offset=".62" stop-color="#ffc4c8" stop-opacity=".86"/><stop offset=".86" stop-color="#ffcfba"/></linearGradient><linearGradient id="linear-gradient-3" x1="16.42" y1="8.02" x2="90.29" y2="420.01" xlink:href="#linear-gradient-2"/><linearGradient id="linear-gradient-4" x1="787.72" y1="251.97" x2="724.99" y2="475.14" xlink:href="#linear-gradient-2"/><linearGradient id="linear-gradient-5" x1="101.23" y1="659.76" x2="97.92" y2="797.45" gradientUnits="userSpaceOnUse"><stop offset=".05" stop-color="#ffdbf4" stop-opacity=".6"/><stop offset=".4" stop-color="#ffdbe4" stop-opacity=".8"/><stop offset=".54" stop-color="#ffdee1" stop-opacity=".86"/><stop offset=".77" stop-color="#ffe6db"/><stop offset="1" stop-color="#fff7db"/></linearGradient><linearGradient id="linear-gradient-6" x1="216.99" y1="711.83" x2="217.65" y2="796.56" xlink:href="#linear-gradient-5"/><linearGradient id="linear-gradient-7" x1="617.69" y1="1713.41" x2="662.45" y2="79.74" gradientTransform="translate(-608.39 382.79) rotate(-10.79) scale(1.27 1)" gradientUnits="userSpaceOnUse"><stop offset="0" stop-color="#ffeaa3"/><stop offset=".02" stop-color="#ffeaa3" stop-opacity=".96"/><stop offset=".14" stop-color="#ffeaa3" stop-opacity=".74"/><stop offset=".25" stop-color="#ffeaa3" stop-opacity=".54"/><stop offset=".37" stop-color="#ffeaa3" stop-opacity=".37"/><stop offset=".49" stop-color="#ffeaa3" stop-opacity=".24"/><stop offset=".61" stop-color="#ffeaa3" stop-opacity=".13"/><stop offset=".74" stop-color="#ffeaa3" stop-opacity=".06"/><stop offset=".87" stop-color="#ffeaa3" stop-opacity=".01"/><stop offset="1" stop-color="#ffeaa3" stop-opacity="0"/></linearGradient><linearGradient id="linear-gradient-8" x1="536.15" y1="1943.62" x2="585.79" y2="131.76" gradientTransform="translate(-105 62.84) rotate(-6.06)" gradientUnits="userSpaceOnUse"><stop offset="0" stop-color="#ffeaa3"/><stop offset=".12" stop-color="#ffeaa3" stop-opacity=".78"/><stop offset=".24" stop-color="#ffeaa3" stop-opacity=".58"/><stop offset=".37" stop-color="#ffeaa3" stop-opacity=".4"/><stop offset=".5" stop-color="#ffeaa3" stop-opacity=".26"/><stop offset=".63" stop-color="#ffeaa3" stop-opacity=".14"/><stop offset=".75" stop-color="#ffeaa3" stop-opacity=".06"/><stop offset=".88" stop-color="#ffeaa3" stop-opacity=".02"/><stop offset="1" stop-color="#ffeaa3" stop-opacity="0"/></linearGradient><radialGradient id="radial-gradient" cx="615.05" cy="901.98" fx="615.05" fy="901.98" r="180.04" gradientTransform="translate(-196.9 964.82) scale(1.1 .78)" gradientUnits="userSpaceOnUse"><stop offset="0" stop-color="#ffdb53"/><stop offset=".1" stop-color="#ffdb53" stop-opacity=".93"/><stop offset=".3" stop-color="#ffdb53" stop-opacity=".75"/><stop offset=".59" stop-color="#ffdb53" stop-opacity=".47"/><stop offset=".94" stop-color="#ffdb53" stop-opacity=".07"/><stop offset="1" stop-color="#ffdb53" stop-opacity="0"/></radialGradient><radialGradient id="radial-gradient-2" cx="615.05" fx="615.05" r="90.02" gradientTransform="translate(-196.9 964.82) scale(1.1 .78)" xlink:href="#radial-gradient"/><linearGradient id="linear-gradient-9" x1="83.75" y1="1565.52" x2="83.75" y2="1930.36" gradientUnits="userSpaceOnUse"><stop offset="0" stop-color="#a15555"/><stop offset=".18" stop-color="#a15555" stop-opacity=".98"/><stop offset=".34" stop-color="#a15555" stop-opacity=".91"/><stop offset=".49" stop-color="#a15555" stop-opacity=".8"/><stop offset=".63" stop-color="#a15555" stop-opacity=".64"/><stop offset=".77" stop-color="#a15555" stop-opacity=".44"/><stop offset=".91" stop-color="#a15555" stop-opacity=".2"/><stop offset="1" stop-color="#a15555" stop-opacity="0"/></linearGradient><radialGradient id="radial-gradient-3" cx="615.05" fx="615.05" r="225.04" gradientTransform="translate(-196.9 964.82) scale(1.1 .78)" xlink:href="#radial-gradient"/><linearGradient id="linear-gradient-10" x1="567.83" y1="1619.39" x2="567.83" y2="2022.9" gradientUnits="userSpaceOnUse"><stop offset="0" stop-color="#ff812b" stop-opacity="0"/><stop offset=".09" stop-color="#ff812b" stop-opacity=".05"/><stop offset=".24" stop-color="#ff812b" stop-opacity=".17"/><stop offset=".45" stop-color="#ff812b" stop-opacity=".37"/><stop offset=".71" stop-color="#ff812b" stop-opacity=".64"/><stop offset=".99" stop-color="#ff812b" stop-opacity=".99"/><stop offset="1" stop-color="#ff812b"/></linearGradient><linearGradient id="linear-gradient-11" x1="440.24" y1="1762.44" x2="440.24" y2="2269.73" gradientUnits="userSpaceOnUse"><stop offset="0" stop-color="#f8ca85"/><stop offset=".4" stop-color="#f2b370"/><stop offset="1" stop-color="#eb9555"/></linearGradient></defs><g class="cls-24"><g id="Layer_1"><g id="Layer_41"><rect class="cls-6" x="0" y="-.01" width="920.96" height="1994.18"/><path class="cls-16" d="M571.51,431.37c0,1.89-.42,3.68-1.16,5.28-.49,1.06-1.56,1.73-2.73,1.73h-55.8c-1.31,0-2.54-.68-3.21-1.81-1.59-2.65-2.5-5.74-2.5-9.05,0-8.59,6.15-15.74,14.29-17.29,.87-.17,1.56-.83,1.75-1.7,1.84-8.47,9.38-14.81,18.4-14.81,10.33,0,18.81,8.46,18.83,18.79,0,1.98-.3,3.89-.86,5.69-.1,.31,.14,.63,.47,.63h0c6.93,0,12.54,5.62,12.54,12.54Z"/><path class="cls-18" d="M920.22,883.67c2.34-5.39,3.61-11.35,3.58-17.61-.13-23.95-19.78-43.49-43.73-43.5-1.03,0-2.04,.04-3.05,.11-5.57-7.65-14.6-12.63-24.79-12.63-5.4,0-10.46,1.4-14.87,3.85-1.38,.77-3.11,.09-3.61-1.41-6.58-19.88-25.18-34.29-47.19-34.62-28.11-.42-51.3,22.4-51.3,50.52,0,4.01,.47,7.91,1.35,11.66,.45,1.9-1.04,3.71-2.99,3.64-.68-.03-1.36-.04-2.05-.04-20.58,0-38.48,11.47-47.66,28.36-.81,1.48-2.49,2.23-4.15,1.9-2.24-.45-4.55-.68-6.91-.68-.62,0-1.23,.02-1.84,.05-1.45,.07-2.86-.5-3.83-1.57-7.3-8-17.81-13.02-29.49-13.02-22.04,0-39.91,17.87-39.91,39.91,0,.7,.02,1.39,.05,2.07,.09,1.73-.98,3.33-2.62,3.9-6.35,2.21-11.23,7.53-12.83,14.14,0,0,0,.02,0,.02-.05,.14-.24,.7-.28,1.39-.08,1.39,.44,3.3,3.95,3.3h344.56c2.4,0,4.58-1.36,5.66-3.5,1.49-2.96,2.33-6.3,2.33-9.84,0-9.97-6.67-18.38-15.8-21.02-2.31-.67-3.53-3.17-2.57-5.37Z"/><path class="cls-17" d="M-99.29,231.64c-2.36-5.45-3.65-11.48-3.62-17.8,.13-24.21,20-43.98,44.22-43.98,1.04,0,2.07,.04,3.08,.11,5.63-7.74,14.76-12.77,25.06-12.77,5.46,0,10.58,1.41,15.03,3.89,1.4,.78,3.15,.09,3.65-1.43,6.66-20.11,25.46-34.67,47.72-35,28.43-.43,51.87,22.65,51.87,51.08,0,4.06-.47,8-1.37,11.79-.45,1.92,1.05,3.75,3.03,3.68,.69-.03,1.38-.04,2.07-.04,20.81,0,38.91,11.6,48.19,28.67,.81,1.5,2.52,2.25,4.19,1.92,2.26-.45,4.6-.69,6.99-.69,.62,0,1.25,.02,1.86,.05,1.46,.08,2.89-.5,3.87-1.59,7.38-8.09,18.01-13.16,29.82-13.16,22.28,0,40.35,18.07,40.35,40.36,0,.7-.02,1.4-.05,2.1-.09,1.75,.99,3.36,2.65,3.94,6.42,2.23,11.36,7.61,12.97,14.29,0,0,0,.02,0,.03,.05,.15,.24,.71,.28,1.4,.08,1.41-.45,3.34-3.99,3.34-7.94,0-20.62,0-20.62,0H-109.78c-2.42,0-4.63-1.38-5.72-3.54-1.51-2.99-2.36-6.37-2.36-9.95,0-10.08,6.75-18.59,15.97-21.25,2.33-.67,3.56-3.2,2.6-5.43Z"/><path class="cls-27" d="M915.85,405.63c0,9.49-2.42,18.41-6.68,26.18-1.97,3.58-5.73,5.82-9.82,5.82h-311.46c-2.69,0-5.17-1.39-6.6-3.67-.08-.13-.16-.26-.24-.39-5.11-8.31-8.01-18.12-7.87-28.63,.38-29.98,25.11-53.65,55.09-52.75,5.81,.18,11.38,1.28,16.58,3.16,2.1,.76,4.3-.35,4.87-2.51,3.14-11.99,11.37-21.93,22.26-27.35,2.12-1.06,3.6-3.08,3.88-5.43,3.39-28.88,27.94-51.28,57.72-51.28,15.23,0,29.09,5.86,39.46,15.45,2.08,1.93,5.09,2.45,7.72,1.37,8.03-3.29,16.82-5.1,26.03-5.1,37.91,0,68.65,30.74,68.65,68.65,0,1.09,.34,2.13,.95,2.99,.6,.85,1.47,1.52,2.5,1.88,21.5,7.31,36.97,27.67,36.97,51.64Z"/><path class="cls-25" d="M16.58,744.62c0,4.58,1.17,8.88,3.22,12.62,.95,1.73,2.76,2.81,4.73,2.81H174.7c1.3,0,2.49-.67,3.18-1.77,2.53-4.05,3.98-8.85,3.91-13.99-.18-14.46-12.11-25.86-26.56-25.43-2.8,.08-5.49,.61-8,1.52-1.01,.37-2.07-.17-2.35-1.21-1.51-5.79-5.49-10.58-10.73-13.19-1.02-.51-1.74-1.49-1.87-2.62-1.63-13.92-13.47-24.72-27.83-24.72-7.34,0-14.03,2.82-19.02,7.45-1.01,.93-2.46,1.18-3.72,.66-3.87-1.59-8.11-2.46-12.55-2.46-18.28,0-33.1,14.82-33.1,33.1h0c0,1.06-.66,2-1.66,2.34-10.37,3.52-17.83,13.34-17.83,24.9Z"/><path class="cls-26" d="M196.06,755.48c0,1.23,.27,2.39,.76,3.44,.32,.69,1.01,1.13,1.77,1.13h36.28c.85,0,1.65-.44,2.09-1.18,1.03-1.72,1.63-3.73,1.63-5.89,0-5.59-4-10.24-9.29-11.24-.57-.11-1.01-.54-1.13-1.1-1.2-5.51-6.1-9.63-11.96-9.63-6.72,0-12.23,5.5-12.24,12.22,0,1.29,.19,2.53,.56,3.7,.06,.2-.09,.41-.3,.41h0c-4.5,0-8.16,3.65-8.16,8.16Z"/><path class="cls-19" d="M96.45,908.02c5.49,21.26,12.99,41.4,22.24,60.25-1.01-20.97-4.19-42.23-9.68-63.49-5.49-21.26-13-41.4-22.26-60.24,1.03,20.96,4.21,42.22,9.7,63.48Z"/><path class="cls-19" d="M130.14,1026.66c2.37,9.19,5.62,17.91,9.62,26.05-.44-9.07-1.81-18.26-4.19-27.45-2.37-9.19-5.62-17.91-9.62-26.05,.45,9.06,1.82,18.26,4.2,27.45Z"/><polygon class="cls-1" points="350.93 1722.03 -30.1 1424.35 -47.16 1371.66 363.18 1718.06 350.93 1722.03"/><polygon class="cls-3" points="354.43 1721.65 -13.44 1152.07 -75.72 861.78 382.14 1715.71 354.43 1721.65"/><polygon class="cls-2" points="746.64 1680.82 1046.18 1072.52 988.87 762.92 632.81 1664.05 746.64 1680.82"/><polygon class="cls-20" points="394.24 1671.75 101.35 308.26 361.47 258.69 449.86 1661.15 394.24 1671.75"/><polygon class="cls-5" points="451.72 1665.65 330.53 127.93 649.03 94.13 540.93 1656.18 451.72 1665.65"/><path class="cls-15" d="M676.71,1493.05c-1.96,5.46-4.57,10.53-7.73,15.16,.51-5.59,1.72-11.16,3.68-16.62,1.96-5.46,4.57-10.53,7.74-15.16-.51,5.59-1.73,11.16-3.69,16.62Z"/><path class="cls-15" d="M713.27,1402.63c-7.43,20.66-16.76,40.03-27.7,57.94,2.94-20.78,8.07-41.66,15.5-62.32,7.43-20.66,16.76-40.03,27.72-57.93-2.96,20.78-8.09,41.65-15.52,62.32Z"/><path class="cls-4" d="M845.17,1065.81c-19.05,53.02-40.21,103.71-62.97,151.57,12.88-51.41,28.84-103.97,47.9-156.99,19.05-53.02,40.21-103.71,63-151.56-12.91,51.4-28.87,103.96-47.92,156.98Z"/><path class="cls-15" d="M115.94,1457.93c12.03,14.45,25.46,27.09,39.98,37.9-7.99-16.25-17.99-31.75-30.02-46.2-12.03-14.45-25.46-27.09-40-37.89,8.01,16.24,18.01,31.74,30.04,46.19Z"/><g><ellipse class="cls-21" cx="480.3" cy="1667.14" rx="197.78" ry="141.82" transform="translate(-173.28 60.01) rotate(-6.06)"/><ellipse class="cls-11" cx="480.3" cy="1667.14" rx="98.89" ry="70.91" transform="translate(-173.28 60.01) rotate(-6.06)"/><path class="cls-12" d="M212.03,1631.08s296.9-99.99,354.15-99.22,136.62,38.16,169.44,44.27-523.59,54.95-523.59,54.95Z"/><path class="cls-22" d="M344.84,1670.85s-302.25-138.91-450.32-141.96-21.37,471.69-21.37,471.69l421.31,16.79,50.37-346.52Z"/><ellipse class="cls-13" cx="480.3" cy="1667.14" rx="247.22" ry="177.28" transform="translate(-173.28 60.01) rotate(-6.06)"/><path class="cls-10" d="M964.39,1845.38l-21.04-197.97,2.67-168.13-59.02,21.37v12.25c-43.07,7.67-110.07,20.99-152.52,36.22,0,0-62.59-20.61-149.98,3.05,0,0-129.2-29.95-136.78-31.62-7.48-1.66-14.64-3.18-21.19-4.48l-.02-11.09-48.85-17.3-109.91,44.01v33.52c-23.75,.8-45.21,5.05-53.9,6.99-2.42,.54-4.15,2.65-4.22,5.12l-.9,254.07,59.02-4.51v8.07l159.27,7.89-.02-16.31,460.01,16.14v10.86l52.92,10.18,.3-19.17,24.17,.85Z"/><polygon class="cls-7" points="568.85 1546.19 568.85 1720.46 407.04 1719.02 415.44 1506.5 568.85 1546.19"/><polygon class="cls-7" points="743.93 1542.37 894.65 1503.7 896.67 1714.87 747.8 1719.45 743.93 1542.37"/><rect class="cls-9" x="602.9" y="1628.53" width="15.94" height="155.19"/><rect class="cls-9" x="700.09" y="1627.77" width="15.94" height="155.19"/><polygon class="cls-7" points="416.96 1872.35 388.34 1872.35 388.34 1510.06 416.96 1519.22 416.96 1872.35"/><path class="cls-8" d="M585.09,1546.7v87.18s101.68-11.7,150.02-2.37v-87.52s-68.44-20.35-150.02,2.71Z"/><path class="cls-14" d="M208.98,1655.77v212.69H926.69v-263.83s-360.76,1.53-717.71,51.14Z"/><path class="cls-23" d="M-53.33,1837.75s810.06-87.52,1038.02-93.63l14.25,462.02-1117.4-16.28,65.13-352.11Z"/></g></g></g></g></svg>