<?xml version="1.0" encoding="UTF-8"?><svg id="Layer_43" xmlns="http://www.w3.org/2000/svg" xmlns:xlink="http://www.w3.org/1999/xlink" viewBox="0 0 920.96 1994.18"><defs><style>.cls-1{fill:#ccb2a4;}.cls-2{fill:#fff;}.cls-3,.cls-4,.cls-5,.cls-6,.cls-7{fill:none;stroke:#fff;stroke-linecap:round;stroke-miterlimit:10;}.cls-3,.cls-8,.cls-9{opacity:.3;}.cls-10{fill:url(#radial-gradient);opacity:.4;}.cls-4{opacity:.7;}.cls-11{fill:url(#linear-gradient-6);}.cls-11,.cls-12,.cls-13,.cls-14,.cls-15,.cls-5,.cls-16,.cls-6,.cls-7{opacity:.5;}.cls-12{fill:url(#linear-gradient-8);}.cls-13{fill:url(#radial-gradient-3);}.cls-14{fill:url(#linear-gradient-7);}.cls-17{opacity:.35;}.cls-15{fill:url(#linear-gradient-3);}.cls-18{fill:#ccb4b7;}.cls-19{fill:url(#linear-gradient-2);opacity:.8;}.cls-20{fill:#4b0094;opacity:.15;}.cls-5{stroke-width:1.5px;}.cls-21{fill:#cc9b92;}.cls-16{fill:url(#linear-gradient-5);}.cls-6{stroke-width:.7px;}.cls-8{fill:#a15c92;}.cls-22{fill:url(#linear-gradient);}.cls-9{fill:url(#radial-gradient-2);}.cls-23{fill:url(#linear-gradient-4);}</style><linearGradient id="linear-gradient" x1="458.89" y1="-370.17" x2="458.89" y2="2182.11" gradientTransform="translate(.77 .24) rotate(-.03)" gradientUnits="userSpaceOnUse"><stop offset="0" stop-color="#152260"/><stop offset=".09" stop-color="#192965"/><stop offset=".23" stop-color="#263e72"/><stop offset=".4" stop-color="#3a6189"/><stop offset=".48" stop-color="#467596"/><stop offset=".53" stop-color="#4b7694"/><stop offset=".58" stop-color="#5a7b90"/><stop offset=".65" stop-color="#74828a"/><stop offset=".72" stop-color="#988d81"/><stop offset=".79" stop-color="#c59a76"/><stop offset=".82" stop-color="#dba171"/><stop offset=".92" stop-color="#df8b6b"/></linearGradient><radialGradient id="radial-gradient" cx="85.41" cy="1256.46" fx="85.41" fy="1256.46" r="180.04" gradientTransform="translate(385.98 688.81) scale(1.1 .78)" gradientUnits="userSpaceOnUse"><stop offset="0" stop-color="#ffb65d"/><stop offset=".1" stop-color="#ffb65d" stop-opacity=".93"/><stop offset=".3" stop-color="#ffb65d" stop-opacity=".75"/><stop offset=".59" stop-color="#ffb65d" stop-opacity=".47"/><stop offset=".94" stop-color="#ffb65d" stop-opacity=".07"/><stop offset="1" stop-color="#ffb65d" stop-opacity="0"/></radialGradient><radialGradient id="radial-gradient-2" r="90.02" gradientTransform="translate(385.98 688.81) scale(1.1 .78)" xlink:href="#radial-gradient"/><linearGradient id="linear-gradient-2" x1="83.47" y1="1565.52" x2="83.47" y2="1930.36" gradientUnits="userSpaceOnUse"><stop offset="0" stop-color="#645166"/><stop offset=".22" stop-color="#624f64" stop-opacity=".97"/><stop offset=".42" stop-color="#5d4b5e" stop-opacity=".86"/><stop offset=".6" stop-color="#544455" stop-opacity=".69"/><stop offset=".77" stop-color="#483a48" stop-opacity=".44"/><stop offset=".94" stop-color="#392d37" stop-opacity=".12"/><stop offset="1" stop-color="#332931" stop-opacity="0"/></linearGradient><radialGradient id="radial-gradient-3" r="225.04" gradientTransform="translate(385.98 688.81) scale(1.1 .78)" xlink:href="#radial-gradient"/><linearGradient id="linear-gradient-3" x1="567.55" y1="1619.39" x2="567.55" y2="2022.9" gradientUnits="userSpaceOnUse"><stop offset="0" stop-color="#cc5c54" stop-opacity="0"/><stop offset=".18" stop-color="#c05b54" stop-opacity=".11"/><stop offset=".5" stop-color="#a15b56" stop-opacity=".42"/><stop offset=".93" stop-color="#6e5b59" stop-opacity=".91"/><stop offset="1" stop-color="#665b5a"/></linearGradient><linearGradient id="linear-gradient-4" x1="439.96" y1="1762.44" x2="439.96" y2="2269.73" gradientUnits="userSpaceOnUse"><stop offset="0" stop-color="#c5a598"/><stop offset=".33" stop-color="#c09489"/><stop offset="1" stop-color="#b8766f"/></linearGradient><linearGradient id="linear-gradient-5" x1="464.09" y1="1379.8" x2="464.09" y2="687.04" gradientUnits="userSpaceOnUse"><stop offset="0" stop-color="#fff"/><stop offset=".01" stop-color="#fff" stop-opacity=".96"/><stop offset=".05" stop-color="#fff" stop-opacity=".78"/><stop offset=".1" stop-color="#fff" stop-opacity=".61"/><stop offset=".15" stop-color="#fff" stop-opacity=".47"/><stop offset=".2" stop-color="#fff" stop-opacity=".34"/><stop offset=".26" stop-color="#fff" stop-opacity=".23"/><stop offset=".32" stop-color="#fff" stop-opacity=".15"/><stop offset=".4" stop-color="#fff" stop-opacity=".08"/><stop offset=".5" stop-color="#fff" stop-opacity=".03"/><stop offset=".63" stop-color="#fff" stop-opacity="0"/><stop offset="1" stop-color="#fff" stop-opacity="0"/></linearGradient><linearGradient id="linear-gradient-6" x1="463.32" y1="1400.15" x2="463.32" y2="360.09" gradientUnits="userSpaceOnUse"><stop offset="0" stop-color="#fff"/><stop offset=".04" stop-color="#fff" stop-opacity=".89"/><stop offset=".1" stop-color="#fff" stop-opacity=".71"/><stop offset=".17" stop-color="#fff" stop-opacity=".54"/><stop offset=".25" stop-color="#fff" stop-opacity=".39"/><stop offset=".33" stop-color="#fff" stop-opacity=".27"/><stop offset=".41" stop-color="#fff" stop-opacity=".17"/><stop offset=".51" stop-color="#fff" stop-opacity=".09"/><stop offset=".62" stop-color="#fff" stop-opacity=".04"/><stop offset=".75" stop-color="#fff" stop-opacity="0"/><stop offset="1" stop-color="#fff" stop-opacity="0"/></linearGradient><linearGradient id="linear-gradient-7" x1="493.89" y1="636.9" x2="493.89" y2="43.89" xlink:href="#linear-gradient-6"/><linearGradient id="linear-gradient-8" x1="447" y1="192.18" x2="447" y2="-212.16" gradientUnits="userSpaceOnUse"><stop offset="0" stop-color="#fff"/><stop offset=".05" stop-color="#fff" stop-opacity=".81"/><stop offset=".1" stop-color="#fff" stop-opacity=".64"/><stop offset=".16" stop-color="#fff" stop-opacity=".49"/><stop offset=".22" stop-color="#fff" stop-opacity=".36"/><stop offset=".28" stop-color="#fff" stop-opacity=".24"/><stop offset=".36" stop-color="#fff" stop-opacity=".15"/><stop offset=".44" stop-color="#fff" stop-opacity=".08"/><stop offset=".54" stop-color="#fff" stop-opacity=".04"/><stop offset=".68" stop-color="#fff" stop-opacity="0"/><stop offset="1" stop-color="#fff" stop-opacity="0"/></linearGradient></defs><rect class="cls-22" x="-.35" y="-.31" width="921.07" height="1994.78"/><rect class="cls-20" x="-.35" y="-.31" width="921.07" height="1994.78"/><g><ellipse class="cls-10" cx="480.02" cy="1667.14" rx="197.78" ry="141.82" transform="translate(-173.28 59.98) rotate(-6.06)"/><ellipse class="cls-9" cx="480.02" cy="1667.14" rx="98.89" ry="70.91" transform="translate(-173.28 59.98) rotate(-6.06)"/><path class="cls-8" d="M211.75,1631.08s296.9-99.99,354.15-99.22,136.62,38.16,169.44,44.27c32.82,6.11-523.59,54.95-523.59,54.95Z"/><path class="cls-19" d="M344.56,1670.85s-302.25-138.91-450.32-141.96-21.37,471.69-21.37,471.69l421.31,16.79,50.37-346.52Z"/><ellipse class="cls-13" cx="480.02" cy="1667.14" rx="247.22" ry="177.28" transform="translate(-173.28 59.98) rotate(-6.06)"/><path class="cls-21" d="M964.11,1845.38l-21.04-197.97,2.67-168.13-59.02,21.37v12.25c-43.07,7.67-110.07,20.99-152.52,36.22,0,0-62.59-20.61-149.98,3.05,0,0-129.2-29.95-136.78-31.62-7.48-1.66-14.64-3.18-21.19-4.48l-.02-11.09-48.85-17.3-109.91,44.01v33.52c-23.75,.8-45.21,5.05-53.9,6.99-2.42,.54-4.15,2.65-4.22,5.12l-.9,254.07,59.02-4.51v8.07l159.27,7.89-.02-16.31,460.01,16.14v10.86l52.92,10.18,.3-19.17,24.17,.85Z"/><polygon class="cls-18" points="570.31 1547.93 570.31 1722.2 408.5 1720.76 416.9 1508.24 570.31 1547.93"/><polygon class="cls-18" points="743.65 1542.37 894.37 1503.7 896.39 1714.87 747.52 1719.45 743.65 1542.37"/><rect class="cls-1" x="602.62" y="1628.53" width="15.94" height="155.19"/><rect class="cls-1" x="699.81" y="1627.77" width="15.94" height="155.19"/><polygon class="cls-18" points="418.42 1874.09 389.8 1874.09 389.8 1511.8 418.42 1520.96 418.42 1874.09"/><path class="cls-18" d="M584.81,1546.7v87.18s101.68-11.7,150.02-2.37v-87.52s-68.44-20.35-150.02,2.71Z"/><path class="cls-15" d="M208.7,1655.77v212.69H926.41v-263.83s-360.76,1.53-717.71,51.14Z"/><path class="cls-23" d="M-53.61,1837.75s810.06-87.52,1038.02-93.63l14.25,462.02-1117.4-16.28,65.13-352.11Z"/></g><g class="cls-17"><path class="cls-2" d="M-48.4,1161.15c85.69,16.3,172.82,25.58,260.11,25.39,37.45,0,74.9-1.27,112.23-4.4,49.82-3.74,99.16-12.56,149.11-14.68,15.83-.33,58.22-2.27,68.58,9.79,2.13,2.58,2.27,6.52,.5,9.34-2.66,4.13-7.57,5.97-11.93,7.57-10.16,4.11-38.41,6.77-39.57,19.56-.52,3,1.22,5.72,3.46,7.72,23.58,19.17,112.57,25.24,145.56,27.61,81.01,4.33,162.23,6.11,243.34,4.15,43.53-1.23,87.46-3.68,130.71-8.76,0,0,.05,0,.05,0,0,0-.74,.84-.74,.84-.02,.29-.24-1373.77,.84-1371.05-.01,0-1099.49,0-1099.51,0,1.42-2.93,36.77,1287.44,37.27,1286.93h0Zm-.95,.8c-.36-.42-36.57-1288.33-36.84-1288.72,1,.53,1100.59-1.03,1100.52,.53,.21,.31,.19,1371.9,.34,1372.27,0,0-.74,.08-.74,.08h-.05c-43.32,5.05-87.26,7.46-130.86,8.64-81.17,1.88-162.41,0-243.46-4.41-32.96-2.41-122.59-8.59-146.24-28.07-4.12-3.43-5.13-8.74-2.18-13.28,6.62-9.73,27.8-11.71,38.7-15.81,4.22-1.52,8.88-3.25,11.42-7.11,1.56-2.49,1.47-5.92-.41-8.22-10.25-11.67-52.11-9.89-67.77-9.57-24.96,.86-49.77,3.84-74.56,6.81-49.57,6.19-99.38,10.92-149.34,11.98-93.69,2.64-187.53-4.78-279.76-21.43,0,0-9.22-1.69-9.22-1.69,0,0-4.6-.88-4.6-.88,0,0-2.3-.45-2.3-.45,0,0-1.15-.23-1.15-.23-.51-.1-1.04-.26-1.5-.44h0Z"/></g><path class="cls-16" d="M-48.87,1161.55s99.3,20.59,206.43,24.45c155.7,5.61,230.81-12.66,298.2-17.21,31.02-2.09,85.71-3.45,87.06,12.67,1.55,18.46-53.09,12.88-52.83,33.56s93.68,32.54,175.75,36.08c96.3,4.15,235.94,7.53,348.1-5.82V-126.28H-85.67L-48.87,1161.55Z"/><g class="cls-17"><path class="cls-2" d="M-72.23,1015.89c.8-.18,2.61-.02,3.46,.03,0,0,3.93,.24,3.93,.24,55.08,3.06,110.31,3.98,165.46,2.55,36.35-1.11,73.95-3.17,110.02-7.72,41.43-5.5,83.78-11.35,122.64-27.39,19.25-8.18,38.45-17.33,58.32-24.03,69.71-24.1,143.26-33.82,215.83-45.27,103.91-15.75,208.4-28.14,311.61-48.18,28.16-5.84,56.64-11.7,83.57-21.86,11.57-6.15,17.84-18.7,22.78-30.36,14.92-39.31,18.68-81.84,22.34-123.44,12.78-209.94-5.08-420.45-22.17-629.67-3.08-41.16-8.99-86.21-11.72-125.12,0,0-1140.21,24.43-1140.21,24.42,1.32-3.02,53.67,1056.34,54.14,1055.78h0Zm-1.03,1.01c-.2-.44-53.49-1057.37-53.64-1057.78,1.08,.59,1141.03-25.45,1141.24-23.98,17.78,167.27,31.31,335.06,37.37,503.19,2.67,84.06,3.92,168.33-2.17,252.28-3.65,41.79-7.41,84.48-22.4,124.01-5.04,12.05-11.64,25-23.68,31.36-27.12,10.26-55.75,16.08-84.06,21.94-103.26,19.97-207.83,31.98-311.8,47.53-72.53,11.31-146.11,20.71-215.75,44.83-19.87,6.71-39,15.84-58.27,24.05-38.91,16.12-81.32,22.11-122.81,27.68-41.4,5.21-84.18,7.41-125.88,8.25-49.94,.98-99.93,.02-149.8-2.67,0,0-3.94-.23-3.94-.23,0,0-1.97-.12-1.97-.12-.79-.04-1.68-.18-2.44-.34h0Z"/></g><path class="cls-11" d="M-72.74,1016.4s167.96,11.51,295.81-6.43c127.04-17.82,103.84-33.02,205.07-61.44,131.4-36.89,462.39-62.59,572.3-102.27s13.4-911.07,13.4-911.07L-126.37-40.38-72.74,1016.4Z"/><g class="cls-17"><path class="cls-2" d="M-85.28,376.72c214.22,44.77,430.9,78.07,648.62,100.33,53.25,5.22,110.28,10.23,163.64,13.73,77.89,5.28,158.9,8.62,236.98,9.26,29.68,.22,61.52,.03,91.22-.64,0,0,9.12-.17,9.12-.17,0,0,4.56-.09,4.56-.09,0,0,2.28-.04,2.28-.04,.76,0,1.52-.19,2.3,.57-.44,3.17-21.12-785.82-20.92-785.13,3.85,.26-1141.4,19.76-1137.69,18.31,0,0-.11,643.87-.11,643.87h0Zm-.78,.63s-.11-644.5-.11-644.5c0,0,0-.49,0-.49,0,0,.49,0,.49,0,.42,.4,1139.76-19.22,1139.19-17.83-.27,.17,21.28,786.92,19.95,786.15-.74,.79-1.51,.62-2.27,.66,0,0-2.28,.04-2.28,.04-2.61,.03-10.9,.21-13.69,.25-23.23,.55-49.77,.7-73.02,.66-102.72-.26-207.58-5.43-309.97-13.53-206.17-16.62-411.45-45.07-614.82-82.6-47.85-8.99-95.97-18.09-143.47-28.8h0Z"/></g><path class="cls-14" d="M-85.67,377.04s617.64,137.85,1159.12,123.14l-20.44-785.64L-85.67-267.15V377.04Z"/><g class="cls-17"><path class="cls-2" d="M-45.63,123.04c1.58-.38,2.64-.61,3.72-.59l3.69,.07c7.76,.16,15.59,.3,23.24,.34,133.63,1.03,269.22-6.1,402.47-17.01,21.36-2.06,71.89-6.44,92.58-8.77,28.41-3.21,64.17-6.69,92.41-10.39,35.15-4.32,88.2-11.13,122.9-16.47,17.02-2.5,44.37-6.23,61.31-9.18,56.97-8.89,126.51-21.48,183.18-32.23,0,0-.4,.49-.4,.49,0,0,0-86.46,0-86.46,0,0,.5,.5,.5,.5,0,0-985.97-7.63-985.97-7.63,.59-3.25,.5,188.11,.36,187.35h0Zm-.72,.7c.01-.51-.15-188.58-.14-189.04,.54-.12,986.32,7.72,986.97,7.64,0,0,0,.5,0,.5,0,.42,0,86.5,0,86.88,0,0-.4,.08-.4,.08-56.86,10.9-126,23.61-183.15,32.64-17.06,2.99-43.87,6.75-61.31,9.32-18.58,2.64-43.17,6.49-61.4,8.76-12.17,1.59-66.21,8.39-76.9,9.78-22.19,2.62-54.71,6-77.06,8.51-20.37,2.32-71.47,6.8-92.61,8.85-122.93,10.19-248.37,17.08-371.63,17.41-17.49,.06-36.79-.04-54.28-.41-2.5-.07-5.94,.08-8.08-.9h0Z"/></g><path class="cls-12" d="M-45.98,123.39s435.57,14.71,985.97-94.1V-57.18L-45.98-64.81V123.39Z"/><path class="cls-2" d="M210.19,673.87c-8.12,11.93-21.82,19.78-37.34,19.78-24.92,0-45.12-20.21-45.12-45.12,0-15.51,7.83-29.19,19.74-37.32-4.91,7.23-7.78,15.96-7.78,25.35,0,24.93,20.21,45.12,45.12,45.12,9.41,0,18.15-2.88,25.38-7.81Z"/><line class="cls-5" x1="318.25" y1="449.12" x2="559.69" y2="300.54"/><g><line class="cls-6" x1="725.19" y1="767.74" x2="870.99" y2="678.02"/><line class="cls-6" x1="689.91" y1="789.45" x2="710.63" y2="776.7"/></g><line class="cls-5" x1="82.14" y1="888.66" x2="202.86" y2="814.37"/><line class="cls-4" x1="729.52" y1="291.59" x2="874.38" y2="202.44"/><line class="cls-3" x1="172.43" y1="110.83" x2="174.17" y2="109.75"/><line class="cls-3" x1="166.14" y1="114.69" x2="169.42" y2="112.68"/><polyline class="cls-3" points="110.86 148.71 154.8 121.67 160.81 117.97"/><line class="cls-7" x1="445.71" y1="390.82" x2="638.46" y2="272.21"/></svg>