<?xml version="1.0" encoding="UTF-8"?><svg id="Layer_1" xmlns="http://www.w3.org/2000/svg" xmlns:xlink="http://www.w3.org/1999/xlink" viewBox="0 0 920.96 1994.18"><defs><style>.cls-1{fill:url(#linear-gradient-2);}.cls-2,.cls-3{fill:#fff;}.cls-3{opacity:.12;}.cls-4{opacity:.5;}.cls-5{fill:url(#linear-gradient-6);}.cls-6{fill:#f4f2e9;}.cls-7,.cls-8,.cls-9{opacity:.2;}.cls-10{opacity:.35;}.cls-8,.cls-11,.cls-12{fill:#ffff9b;}.cls-13{fill:#ffde82;}.cls-14{fill:url(#linear-gradient-10);}.cls-15,.cls-16{opacity:.15;}.cls-17,.cls-12{opacity:.4;}.cls-18{fill:#c9eff2;}.cls-16{fill:url(#linear-gradient-11);}.cls-19{fill:url(#linear-gradient-5);}.cls-20{fill:#d0f4f7;}.cls-9{fill:#aed097;}.cls-21{fill:#b6e8ff;}.cls-22{fill:url(#linear-gradient-7);}.cls-23{opacity:.6;}.cls-24{fill:url(#linear-gradient-3);}.cls-25{fill:url(#linear-gradient);}.cls-26{fill:#ffbf8a;}.cls-27{fill:url(#linear-gradient-9);opacity:.8;}.cls-28{fill:url(#linear-gradient-4);}.cls-29{fill:url(#linear-gradient-8);}</style><linearGradient id="linear-gradient" x1="460.48" y1="-374.34" x2="460.48" y2="2046.85" gradientUnits="userSpaceOnUse"><stop offset="0" stop-color="#69aeff"/><stop offset=".19" stop-color="#71b6ff"/><stop offset=".5" stop-color="#88cfff"/><stop offset=".76" stop-color="#a1e8ff"/><stop offset=".82" stop-color="#a4e9fc"/><stop offset=".87" stop-color="#afecf5"/><stop offset=".92" stop-color="#c2f1e9"/><stop offset=".97" stop-color="#dcf9d8"/><stop offset="1" stop-color="#eeffcd"/></linearGradient><linearGradient id="linear-gradient-2" x1="861.67" y1="498.85" x2="920.96" y2="498.85" gradientUnits="userSpaceOnUse"><stop offset="0" stop-color="#fff" stop-opacity="0"/><stop offset=".36" stop-color="#fff" stop-opacity=".45"/><stop offset=".82" stop-color="#fff"/></linearGradient><linearGradient id="linear-gradient-3" x1="407.05" y1="20.1" x2="459.24" y2="20.1" gradientUnits="userSpaceOnUse"><stop offset=".18" stop-color="#fff"/><stop offset=".64" stop-color="#fff" stop-opacity=".45"/><stop offset="1" stop-color="#fff" stop-opacity="0"/></linearGradient><linearGradient id="linear-gradient-4" x1="428.48" y1="29.34" x2="498.07" y2="29.34" gradientUnits="userSpaceOnUse"><stop offset=".18" stop-color="#fff"/><stop offset=".64" stop-color="#fff" stop-opacity=".45"/><stop offset="1" stop-color="#fff" stop-opacity="0"/></linearGradient><linearGradient id="linear-gradient-5" x1="884.92" y1="219.28" x2="921.44" y2="219.28" gradientUnits="userSpaceOnUse"><stop offset="0" stop-color="#fff" stop-opacity="0"/><stop offset=".36" stop-color="#fff" stop-opacity=".45"/><stop offset=".82" stop-color="#fff"/></linearGradient><linearGradient id="linear-gradient-6" x1="874.93" y1="94.86" x2="921.62" y2="94.86" gradientUnits="userSpaceOnUse"><stop offset="0" stop-color="#fff" stop-opacity="0"/><stop offset=".36" stop-color="#fff" stop-opacity=".45"/><stop offset=".82" stop-color="#fff"/></linearGradient><linearGradient id="linear-gradient-7" x1=".61" y1="528.96" x2="354.56" y2="528.96" gradientUnits="userSpaceOnUse"><stop offset=".18" stop-color="#fff"/><stop offset=".64" stop-color="#fff" stop-opacity=".45"/><stop offset="1" stop-color="#fff" stop-opacity="0"/></linearGradient><linearGradient id="linear-gradient-8" x1="1.31" y1="912.46" x2="173.69" y2="912.46" gradientUnits="userSpaceOnUse"><stop offset=".18" stop-color="#fff"/><stop offset=".64" stop-color="#fff" stop-opacity=".45"/><stop offset="1" stop-color="#fff" stop-opacity="0"/></linearGradient><linearGradient id="linear-gradient-9" x1="83.77" y1="2298.41" x2="83.77" y2="1326.71" gradientUnits="userSpaceOnUse"><stop offset="0" stop-color="#d0f4f7"/><stop offset=".13" stop-color="#c8ece2"/><stop offset=".37" stop-color="#bddfc1"/><stop offset=".6" stop-color="#b4d7aa"/><stop offset=".82" stop-color="#afd19b"/><stop offset="1" stop-color="#aed097"/></linearGradient><linearGradient id="linear-gradient-10" x1="428.63" y1="1744.67" x2="437.79" y2="2101.87" gradientUnits="userSpaceOnUse"><stop offset="0" stop-color="#f4f2e9"/><stop offset=".38" stop-color="#e7e0d4"/><stop offset="1" stop-color="#d6c7b6"/></linearGradient><linearGradient id="linear-gradient-11" x1="460.48" y1="-63.94" x2="460.48" y2="1972.72" gradientUnits="userSpaceOnUse"><stop offset="0" stop-color="#80b3f9" stop-opacity=".2"/><stop offset=".62" stop-color="#80b3f9" stop-opacity=".71"/><stop offset="1" stop-color="#80b4f9"/></linearGradient></defs><g id="Layer_41"><rect class="cls-25" x="0" y="-.02" width="920.96" height="1994.18"/><g class="cls-4"><path class="cls-1" d="M920.96,524.28v2.36c-.25,0-.49-.09-.68-.26l-58.31-53.7c-.38-.35-.41-.95-.05-1.33,.35-.38,.95-.41,1.33-.05l57.71,52.98Z"/></g><g class="cls-4"><path class="cls-24" d="M459.03,39.85c-.32,.4-.92,.48-1.33,.15L407.05-.02h3.21l48.62,38.54c.4,.33,.48,.92,.15,1.33Z"/></g><g class="cls-17"><path class="cls-28" d="M489.69,57.72c-.38,.36-.9,.35-1.26,.01L427.74,.68h24.03l38.06,55.37c.35,.51,.29,1.26-.14,1.67Z"/></g><g class="cls-10"><path class="cls-19" d="M920.92,214.31v3.79l-35.37,6.13c-.31,.05-.59-.33-.63-.87-.04-.55,.18-1.05,.5-1.12l35.49-7.93Z"/></g><g class="cls-7"><path class="cls-5" d="M920.96,74.13v4.83l-44.39,36.4c-.42,.33-1.04,.28-1.4-.12-.36-.42-.31-1.06,.1-1.42l45.69-39.69Z"/></g><g class="cls-7"><path class="cls-22" d="M339.16,440.91L7.16,616.97c-2.29,1.22-4.73,1.84-7.16,1.92v-34.91l338.3-144.87c.51-.22,1.09,.02,1.31,.52,.21,.49,0,1.04-.45,1.28Z"/></g><g class="cls-15"><path class="cls-29" d="M153.07,819.48L7.08,1001.19c-2.01,2.49-4.43,4.45-7.08,5.88v-59.87l151.63-129.11c.42-.36,1.05-.31,1.41,.11,.32,.38,.32,.91,.03,1.28Z"/></g><path class="cls-3" d="M920.96,910.48v743.57H396.12c-15.73,0-30.03-8.94-37.12-22.99-9.8-19.41-15.31-41.34-15.31-64.56,0-65.42,43.79-120.62,103.65-137.9,15.14-4.37,23.14-20.77,16.87-35.23-10.7-24.72-18.02-51.26-21.38-79.01-1.46-11.96-2.18-24.16-2.11-36.53,.02-4.24,.14-8.46,.35-12.65,3.48-70.33,32.61-134.2,78.14-182.43,26.48-28.04,58.49-50.79,94.24-66.45,35.06-15.36,73.71-23.89,114.23-23.91,6.74,0,13.4,.24,20.01,.7,36.54-50.22,95.78-82.89,162.65-82.89,3.56,0,7.1,.09,10.62,.28Z"/><g class="cls-23"><path class="cls-2" d="M355.51,781.09c41.56,49.89,79.94,103.22,116.78,156.62,100.71,147.83,189.4,304.85,264.93,467.03,62.9,134.23,116.73,274.15,161.07,415.64,8.24,28.05,18.27,59.74,25.79,87.98,0,0,12.87,47.18,12.87,47.18,0,0,1.61,5.9,1.61,5.9,4.95,19.64,11.22,45.59,16.12,65.29,4.41,17.35,12.06,54.08,16.02,71.6,0,0,2.62,11.94,2.62,11.94,.43,1.99,.9,3.98,1.29,5.98,0,0,1.15,6,1.15,6,3.29,17.05,10.54,55,13.83,72.06,0,0-9.73,1.7-9.73,1.7-3.2-17.1-10.34-55.68-13.38-71.91-1.11-6.5-3.51-17.25-4.91-23.88-3.87-17.61-11.43-54.84-15.56-71.47-5.42-22.08-11.59-49.24-17.27-71.09-4.65-17.2-14.33-54.26-18.96-70.66-5.01-17.02-12.16-41.6-17.13-58.52-38.84-127.92-85.87-254.92-140.06-377.1-95.56-215.39-212.37-422.55-352.7-612.02-13.67-18.01-30.5-40.2-45.15-57.64,0,0,.76-.65,.76-.65h0Z"/></g><path class="cls-21" d="M825.46,1718.93c0,17.67-2.18,34.81-6.28,51.2-4.39,17.59-11,34.3-19.51,49.82-7.6,13.83-22.1,22.44-37.89,22.44H0v-615.33c35.15-22.9,77.13-36.2,122.2-36.2,58.77,0,112.25,22.62,152.24,59.6,8.03,7.44,19.64,9.46,29.78,5.3,30.97-12.69,64.88-19.69,100.44-19.69,12.35,0,24.51,.85,36.41,2.49,44.8,6.15,86.03,23.52,120.77,49.18,45.03,33.25,79.15,80.43,96,135.18,7.59,24.66,11.68,50.86,11.68,78.01,0,4.21,1.32,8.22,3.65,11.52,2.33,3.29,5.66,5.87,9.65,7.23,24.82,8.44,47.56,21.39,67.24,37.87,22.77,19.07,41.45,42.86,54.51,69.88,13.39,27.66,20.89,58.7,20.89,91.5Z"/><path class="cls-20" d="M920.96,1388.82v394.95H307.41c-.13-.23-.27-.45-.41-.68-12.72-21.29-19.92-46.28-19.57-72.97,.99-77.88,65.24-139.34,143.09-137.02,15.09,.45,29.57,3.31,43.08,8.2,5.46,1.98,11.16-.91,12.63-6.53,.59-2.24,1.24-4.46,1.97-6.64,9.3-28.18,29.61-51.34,55.85-64.41,5.51-2.74,9.36-8.01,10.07-14.11,6.97-59.38,48.39-108.22,103.72-125.99,9.04-2.9,18.45-4.98,28.14-6.14,2.93-.35,5.88-.62,8.86-.8,2.97-.18,5.96-.27,8.98-.27h.24c39.57,0,75.57,15.22,102.49,40.12,5.42,5.01,13.23,6.37,20.06,3.57,20.85-8.55,43.68-13.27,67.62-13.27,9.08,0,18.01,.68,26.73,1.99Z"/><g class="cls-23"><path class="cls-2" d="M301.7,715.41l-12.15,30.87c-.17,.44-.21,.92-.1,1.38l.08,.34c.21,.9,1.37,1.15,1.94,.43l18.52-23.35-8.3-9.67Z"/><path class="cls-2" d="M306.18,711.56l32.36-7.32c.46-.1,.94-.06,1.38,.11l.33,.13c.85,.35,.93,1.53,.13,1.99l-25.89,14.76-8.3-9.67Z"/><path class="cls-2" d="M328.07,741.6h0c-1.46,1.25-3.64,1.14-4.97-.25l-29.61-31.01c-2.16-2.46-1.89-6.22,.6-8.35h0c2.49-2.13,6.23-1.83,8.34,.68l26.15,33.98c1.17,1.52,.95,3.7-.51,4.95Z"/></g><path class="cls-9" d="M221.53,1732.67s296.9-99.99,354.15-99.22,136.62,38.16,169.44,44.27c32.82,6.11-523.59,54.95-523.59,54.95Z"/><g><path class="cls-27" d="M344.85,1670.85s-302.25-138.91-450.32-141.96c-148.07-3.05-21.37,471.69-21.37,471.69l421.31,16.79,50.37-346.52Z"/><path class="cls-26" d="M964.4,1845.38l-21.04-197.97,2.67-168.13-59.02,21.37v12.25c-43.06,7.67-110.07,20.99-152.52,36.22,0,0-62.59-20.61-149.98,3.05,0,0-129.21-29.95-136.78-31.62-7.48-1.66-14.64-3.18-21.19-4.48l-.02-11.09-48.85-17.3-109.91,44.01v33.52c-23.75,.8-45.21,5.05-53.9,6.99-2.42,.54-4.15,2.65-4.22,5.12l-.9,254.07,59.02-4.51v8.08l159.26,7.89-.02-16.31,460.01,16.14v10.86l52.92,10.18,.3-19.17,24.17,.85Z"/><polygon class="cls-18" points="568.86 1546.19 568.86 1720.46 407.05 1719.02 415.45 1506.5 568.86 1546.19"/><polygon class="cls-18" points="743.94 1542.37 894.66 1503.7 896.68 1714.87 747.81 1719.45 743.94 1542.37"/><rect class="cls-13" x="602.91" y="1628.53" width="15.94" height="155.19"/><rect class="cls-13" x="700.1" y="1627.77" width="15.94" height="155.19"/><polygon class="cls-18" points="416.98 1872.35 384.79 1872.35 384.79 1510.06 416.98 1519.22 416.98 1872.35"/><path class="cls-6" d="M585.1,1546.7v87.18s101.68-11.7,150.02-2.37v-87.52s-68.44-20.35-150.02,2.71Z"/><path class="cls-14" d="M-53.31,1837.75s810.06-87.52,1038.02-93.63l14.25,462.02-1117.4-16.28,65.13-352.11Z"/></g><rect class="cls-16" x="0" y="0" width="920.96" height="1994.18"/><g><circle class="cls-8" cx="661.41" cy="271.31" r="189.92"/><circle class="cls-12" cx="661.41" cy="271.31" r="158.27"/><circle class="cls-11" cx="661.41" cy="271.31" r="109.91"/></g></g></svg>